<svg width="642" height="197" viewBox="0 0 642 197" fill="none" xmlns="http://www.w3.org/2000/svg">
<path d="M100.283 42.5304C103.581 42.3746 106.879 42.2188 110.177 42.063C113.457 41.8259 116.737 41.5889 120.016 41.3519C119.935 44.3623 119.904 47.4041 119.923 50.4772C119.924 53.4691 120.005 56.4424 120.168 59.3972C116.556 60.052 112.904 60.7162 109.211 61.3896C105.6 62.0445 101.947 62.7087 98.2547 63.3821C98.044 68.8158 97.9957 74.2123 98.1099 79.5717C98.3053 84.9125 98.6633 90.2162 99.1836 95.4827C99.7667 100.649 100.512 105.779 101.42 110.871C102.409 115.945 103.602 120.973 104.997 125.954C101.792 126.515 98.5458 127.087 95.2592 127.667C92.0538 128.229 88.8484 128.791 85.6431 129.353C84.8698 125.598 84.2091 121.774 83.661 117.881C83.0943 113.908 82.6495 109.906 82.3265 105.877C82.0035 101.848 81.8023 97.7903 81.7231 93.7051C81.6438 89.62 81.6864 85.5071 81.8508 81.3662C78.1652 84.688 74.5202 88.0005 70.9159 91.3038C67.3742 94.5072 63.8417 97.7512 60.3186 101.036C56.8581 104.221 53.407 107.446 49.9651 110.712C46.5858 113.879 43.2066 117.045 39.8274 120.211C37.5456 118.083 35.345 115.936 33.2256 113.771C31.0877 111.524 28.9904 109.268 26.9337 107.003C31.3064 103.695 35.7196 100.378 40.1735 97.0512C44.6088 93.6434 49.094 90.267 53.6291 86.9219C58.2269 83.477 62.834 80.0727 67.4503 76.709C72.0481 73.2641 76.6958 69.8506 81.3934 66.4683C76.301 67.3763 71.2179 68.3249 66.1441 69.3142C61.1329 70.2036 56.0811 71.1023 50.9887 72.0103C51.0974 67.6257 51.3779 63.2446 51.8301 58.867C52.2638 54.4082 52.8286 49.9621 53.5245 45.5287C58.9907 45.1337 64.4661 44.7792 69.9508 44.4654C75.4355 44.1515 80.9516 43.7878 86.4989 43.3742C87.0859 40.3335 87.7541 37.2742 88.5035 34.1964C89.3342 31.1 90.2055 27.9943 91.1174 24.8793C93.3177 24.0342 95.5587 23.1799 97.8402 22.3162C100.122 21.4526 102.403 20.5889 104.685 19.7253C103.759 23.5273 102.924 27.3514 102.179 31.1975C101.416 34.9624 100.784 38.74 100.283 42.5304ZM77.1026 89.7609C77.2326 90.3295 77.322 90.9075 77.3708 91.4947C77.5009 92.0633 77.6309 92.632 77.7609 93.2007C73.205 97.5763 68.7303 101.933 64.3369 106.272C59.9434 110.61 55.6312 114.93 51.4003 119.232C50.6761 119.055 49.9612 118.92 49.2555 118.825C48.6126 118.63 47.9383 118.485 47.2327 118.39C49.6858 116.033 52.0984 113.687 54.4704 111.349C56.9236 108.993 59.3767 106.637 61.8299 104.281C64.3458 101.825 66.8709 99.4094 69.4053 97.0347C71.9212 94.5787 74.4869 92.1541 77.1026 89.7609ZM59.5504 115.06C61.3908 113.015 63.2812 111.001 65.2215 109.019C67.1431 106.955 69.1054 104.882 71.1084 102.8C71.7142 102.833 72.2794 102.874 72.8039 102.925C73.4097 102.958 74.0248 103.031 74.6492 103.144C72.4397 105.445 70.2396 107.786 68.0487 110.168C65.8392 112.468 63.639 114.809 61.4481 117.191C61.1115 116.84 60.7749 116.49 60.4383 116.139C60.1017 115.789 59.8058 115.429 59.5504 115.06ZM102.117 71.8596C102.56 71.9291 103.003 71.9987 103.447 72.0683C103.871 72.0567 104.305 72.0857 104.749 72.1553C104.417 78.5569 104.42 84.9248 104.757 91.259C105.076 97.512 105.719 103.691 106.688 109.795C106.2 109.907 105.722 110.059 105.253 110.251C104.866 110.425 104.438 110.609 103.969 110.802C103.044 104.516 102.395 98.125 102.021 91.6283C101.728 85.113 101.76 78.5234 102.117 71.8596ZM107.784 100.569C107.377 97.6696 107.052 94.752 106.808 91.8159C106.564 88.8797 106.361 85.9343 106.198 82.9795C106.63 82.6244 107.021 82.2785 107.371 81.9419C107.784 81.5055 108.207 81.1097 108.638 80.7546C108.831 84.2153 109.115 87.6981 109.489 91.2029C109.926 94.6079 110.443 97.9943 111.043 101.362C110.499 101.23 109.956 101.098 109.413 100.965C108.87 100.833 108.327 100.701 107.784 100.569Z" fill="#060000"/>
<path d="M165.76 47.7396C169.54 49.4209 173.321 51.1021 177.101 52.7833C180.959 54.3761 184.862 56.0079 188.809 57.6786C183.407 63.3645 178.343 69.1125 173.618 74.9226C168.887 80.6495 164.447 86.358 160.298 92.0481C156.232 97.733 152.416 103.402 148.849 109.055C145.366 114.703 142.168 120.25 139.256 125.694C136.801 123.846 134.346 121.997 131.891 120.149C129.519 118.295 127.189 116.438 124.9 114.579C127.142 109.093 129.632 103.592 132.373 98.0741C135.191 92.4682 138.303 86.8855 141.708 81.3259C145.109 75.6832 148.803 70.0637 152.791 64.4673C156.778 58.8709 161.101 53.295 165.76 47.7396ZM148.95 118.568C150.611 115.791 152.353 112.967 154.176 110.096C155.998 107.225 157.864 104.393 159.775 101.6C161.764 98.7189 163.794 95.8349 165.866 92.9482C168.021 90.0563 170.259 87.1592 172.58 84.2567C172.773 84.6621 172.968 85.1089 173.166 85.5974C173.442 85.9975 173.72 86.4391 174.001 86.9223C169.998 92.2692 166.285 97.5977 162.864 102.908C159.437 108.135 156.26 113.346 153.332 118.541C152.667 118.583 151.96 118.628 151.212 118.675C150.458 118.639 149.704 118.604 148.95 118.568ZM158.142 117.36C160.089 113.813 162.157 110.217 164.348 106.571C166.622 102.92 168.982 99.3058 171.427 95.7275C171.786 96.1222 172.145 96.517 172.504 96.9118C172.946 97.3013 173.347 97.6935 173.706 98.0882C171.567 101.23 169.469 104.368 167.413 107.505C165.44 110.635 163.551 113.761 161.744 116.881C161.162 116.918 160.583 116.997 160.006 117.117C159.423 117.153 158.802 117.235 158.142 117.36Z" fill="#060000"/>
<path d="M247 68.875C249.75 71.875 252.542 74.8333 255.375 77.75C258.208 80.6667 261.167 83.5833 264.25 86.5C261.583 90.25 259.042 94 256.625 97.75C254.208 101.417 251.875 105.083 249.625 108.75C246.542 105.25 243.542 101.75 240.625 98.25C237.792 94.6667 235 91.125 232.25 87.625C229.833 90.9583 227.458 94.3333 225.125 97.75C222.875 101.083 220.667 104.417 218.5 107.75C216.417 111.083 214.375 114.417 212.375 117.75C210.458 121 208.583 124.292 206.75 127.625C204.083 124.875 201.417 122.125 198.75 119.375C196.167 116.625 193.625 113.875 191.125 111.125C193.375 107.958 195.708 104.833 198.125 101.75C200.542 98.5833 203.042 95.4583 205.625 92.375C208.208 89.2083 210.833 86.0417 213.5 82.875C216.25 79.7083 219.083 76.5833 222 73.5C220.083 70.6667 218.208 67.875 216.375 65.125C214.542 62.2917 212.792 59.5 211.125 56.75C213.125 54.3333 215.167 51.9167 217.25 49.5C219.333 47 221.458 44.5417 223.625 42.125C225.708 44.7083 227.833 47.3333 230 50C232.25 52.5833 234.542 55.2083 236.875 57.875C239.625 55.125 242.417 52.375 245.25 49.625C248.083 46.875 250.958 44.1667 253.875 41.5C256.875 38.75 259.917 36.0417 263 33.375C266.083 30.625 269.25 27.9167 272.5 25.25C272.667 27.5833 272.875 29.9167 273.125 32.25C273.375 34.5833 273.667 36.9583 274 39.375C271.583 41.7917 269.167 44.25 266.75 46.75C264.417 49.1667 262.125 51.625 259.875 54.125C257.625 56.5417 255.417 59 253.25 61.5C251.167 64 249.083 66.4583 247 68.875ZM210.125 75.875C210.792 75.9583 211.458 76.0833 212.125 76.25C212.792 76.4167 213.458 76.5417 214.125 76.625C209.958 80.9583 205.875 85.2917 201.875 89.625C197.958 93.875 194.167 98.125 190.5 102.375C190.25 101.958 190 101.542 189.75 101.125C189.5 100.708 189.25 100.292 189 99.875C192.25 95.875 195.625 91.875 199.125 87.875C202.708 83.875 206.375 79.875 210.125 75.875ZM205.5 76C203 78.75 200.5 81.5 198 84.25C195.583 87 193.25 89.75 191 92.5C190.583 92.0833 190.208 91.6667 189.875 91.25C189.542 90.8333 189.208 90.4167 188.875 90C190.958 87.6667 193.083 85.3333 195.25 83C197.5 80.5833 199.792 78.1667 202.125 75.75C202.708 75.8333 203.25 75.9167 203.75 76C204.333 76 204.917 76 205.5 76ZM252.375 68.75C252.708 68.4167 253.042 68.125 253.375 67.875C253.792 67.5417 254.167 67.25 254.5 67C256.417 68.75 258.333 70.5417 260.25 72.375C262.25 74.125 264.292 75.9167 266.375 77.75C266.125 78.3333 265.875 78.9167 265.625 79.5C265.375 80.0833 265.125 80.625 264.875 81.125C262.708 79.125 260.583 77.0833 258.5 75C256.417 72.9167 254.375 70.8333 252.375 68.75ZM259 67C259.417 66.5833 259.792 66.2083 260.125 65.875C260.542 65.4583 260.917 65.0833 261.25 64.75C262.417 65.8333 263.542 66.9583 264.625 68.125C265.792 69.2083 266.958 70.2917 268.125 71.375C267.958 71.875 267.792 72.375 267.625 72.875C267.458 73.2917 267.292 73.7083 267.125 74.125C265.792 72.9583 264.417 71.7917 263 70.625C261.667 69.375 260.333 68.1667 259 67Z" fill="#060000"/>
<path d="M384.979 64.783C384.299 67.6918 383.708 70.6275 383.207 73.59C382.691 76.4704 382.265 79.3776 381.928 82.3116C387.543 82.0149 393.117 81.7252 398.65 81.4427C404.251 81.0639 409.859 80.7261 415.474 80.4293C415.358 77.3201 415.365 74.1896 415.495 71.0377C415.611 67.8037 415.768 64.5625 415.966 61.3143C410.819 61.8683 405.637 62.4705 400.422 63.1209C395.274 63.6749 390.126 64.2289 384.979 64.783ZM390.072 32.6914C389.282 35.4503 388.574 38.1949 387.947 40.9253C387.321 43.6558 386.743 46.4201 386.213 49.2184C391.157 48.9534 396.109 48.7294 401.067 48.5465C406.011 48.2815 411.003 48.0505 416.044 47.8534C416.613 44.7945 417.23 41.7696 417.896 38.7787C418.629 35.6913 419.411 32.638 420.241 29.6185C415.257 30.1441 410.233 30.6768 405.167 31.2166C400.087 31.6743 395.056 32.1659 390.072 32.6914ZM414.285 109.433C417.094 105.141 420.025 100.827 423.079 96.4914C426.134 92.156 429.311 87.7992 432.612 83.4211C435.898 78.9609 439.274 74.5276 442.739 70.121C446.272 65.6181 449.894 61.142 453.605 56.6928C456.031 58.9787 458.506 61.2985 461.028 63.6522C463.618 65.9097 466.25 68.16 468.922 70.4031C464.718 74.9378 460.637 79.4511 456.68 83.9431C452.722 88.435 448.847 92.9127 445.053 97.3762C441.342 101.825 437.706 106.219 434.144 110.558C430.665 114.883 427.268 119.193 423.953 123.489C422.198 121.171 420.525 118.839 418.935 116.493C417.344 114.147 415.794 111.794 414.285 109.433ZM445.182 117.145C447.571 113.855 450.002 110.558 452.474 107.254C455.028 103.936 457.665 100.603 460.383 97.2562C460.783 97.6098 461.148 98.0116 461.48 98.4615C461.88 98.8151 462.279 99.1687 462.679 99.5224C460.232 102.484 457.826 105.438 455.461 108.385C453.179 111.318 450.937 114.244 448.737 117.163C448.134 117.098 447.538 117.075 446.949 117.092C446.36 117.11 445.771 117.127 445.182 117.145ZM433.325 120.469C437.047 115.595 440.927 110.651 444.963 105.638C448.999 100.625 453.159 95.5905 457.442 90.5348C457.691 90.999 457.934 91.4221 458.169 91.8042C458.487 92.172 458.77 92.588 459.02 93.0522C455.187 97.7763 451.477 102.479 447.891 107.16C444.387 111.827 440.998 116.432 437.726 120.974C436.944 120.856 436.17 120.779 435.402 120.743C434.717 120.693 434.025 120.601 433.325 120.469Z" fill="#060000"/>
<path d="M522.125 68C521.208 72.0833 520.5 76.2083 520 80.375C519.583 84.5417 519.375 88.75 519.375 93C519.458 97.1667 519.75 101.375 520.25 105.625C520.833 109.792 521.667 113.917 522.75 118C519 118.25 515.292 118.5 511.625 118.75C507.958 119 504.25 119.25 500.5 119.5C496.833 119.75 493.125 120 489.375 120.25C485.708 120.417 482.042 120.625 478.375 120.875C478.042 118.375 477.833 115.833 477.75 113.25C477.667 110.667 477.667 108.083 477.75 105.5C482.583 105.583 487.375 105.708 492.125 105.875C496.958 105.958 501.792 106.042 506.625 106.125C506.542 104.708 506.458 103.333 506.375 102C506.292 100.583 506.25 99.1667 506.25 97.75C501.75 97.75 497.208 97.75 492.625 97.75C488.042 97.75 483.458 97.75 478.875 97.75C478.875 96.0833 478.875 94.4583 478.875 92.875C478.958 91.2083 479.083 89.5833 479.25 88C483.833 87.8333 488.417 87.7083 493 87.625C497.667 87.4583 502.292 87.2917 506.875 87.125C506.958 85.7917 507.083 84.4583 507.25 83.125C507.5 81.7917 507.75 80.4583 508 79.125C503 79.0417 498 79 493 79C488.083 78.9167 483.125 78.8333 478.125 78.75C478.208 76.4167 478.333 74.0833 478.5 71.75C478.75 69.3333 479.042 66.9583 479.375 64.625C482.958 64.9583 486.5 65.25 490 65.5C493.583 65.75 497.167 66.0417 500.75 66.375C504.333 66.625 507.875 66.875 511.375 67.125C514.958 67.375 518.542 67.6667 522.125 68ZM528.25 75.75C527.417 81.5833 527.042 87.4583 527.125 93.375C527.208 99.2917 527.792 105.167 528.875 111C528.375 111.333 527.875 111.708 527.375 112.125C526.875 112.542 526.375 112.917 525.875 113.25C524.625 106.917 524 100.542 524 94.125C524 87.625 524.583 81.1667 525.75 74.75C526.167 74.9167 526.583 75.0833 527 75.25C527.417 75.4167 527.833 75.5833 528.25 75.75ZM533.5 83.125C533.167 86.625 533 90.1667 533 93.75C533.083 97.25 533.292 100.75 533.625 104.25C533.292 104.667 532.917 105.083 532.5 105.5C532.167 105.833 531.792 106.208 531.375 106.625C530.792 102.625 530.417 98.625 530.25 94.625C530.083 90.625 530.167 86.625 530.5 82.625C531 82.7083 531.5 82.7917 532 82.875C532.5 82.9583 533 83.0417 533.5 83.125Z" fill="#060000"/>
<path d="M546.893 40.2397C550.794 40.0917 554.694 39.9437 558.595 39.7957C562.576 39.6678 566.547 39.5803 570.509 39.5332C574.47 39.4862 578.391 39.4291 582.271 39.3619C586.233 39.3149 590.184 39.3083 594.125 39.3421C591.747 43.0448 589.449 46.7675 587.232 50.5103C585.096 54.2732 583.071 58.1066 581.157 62.0106C577.277 62.4213 573.388 62.8725 569.488 63.3641C565.588 63.8557 561.728 64.3573 557.909 64.869C554.09 65.3807 550.261 65.9328 546.422 66.5254C542.683 67.0571 538.945 67.5889 535.207 68.1206C536.654 63.3281 538.344 58.5958 540.276 53.9238C542.29 49.2718 544.495 44.7105 546.893 40.2397ZM605.382 63.0008C609.203 63.5199 613.034 63.9986 616.875 64.4368C620.797 64.8951 624.728 65.3129 628.67 65.6904C624.776 69.6179 620.872 73.7576 616.958 78.1096C613.146 82.4008 609.464 86.8535 605.915 91.4676C602.366 96.0817 598.988 100.867 595.783 105.824C592.598 110.701 589.716 115.738 587.137 120.937C583.579 120.053 579.909 118.928 576.127 117.56C572.446 116.131 568.613 114.45 564.628 112.516C567.167 107.823 569.928 103.271 572.912 98.8596C575.977 94.4686 579.224 90.2086 582.653 86.0798C586.082 81.9509 589.693 77.9532 593.486 74.0864C597.36 70.2398 601.326 66.5446 605.382 63.0008ZM541.67 71.1415C541.529 71.7077 541.429 72.2838 541.369 72.8701C541.33 73.3754 541.28 73.9212 541.22 74.5074C544.939 74.0566 548.606 73.6361 552.223 73.246C555.942 72.7951 559.65 72.3847 563.348 72.0147C563.528 71.2868 563.749 70.5689 564.011 69.8611C564.293 69.0724 564.524 68.3141 564.705 67.5862C560.865 68.1787 556.986 68.7612 553.066 69.3337C549.227 69.9263 545.428 70.5289 541.67 71.1415ZM548.045 76.5879C548.006 77.0932 547.956 77.639 547.896 78.2253C547.938 78.7507 547.969 79.3165 547.99 79.9229C549.95 79.6366 551.86 79.3808 553.719 79.1553C555.679 78.8691 557.639 78.5829 559.599 78.2966C559.719 77.8113 559.799 77.316 559.839 76.8107C559.959 76.3254 560.09 75.7997 560.23 75.2335C558.19 75.4997 556.159 75.7254 554.138 75.9107C552.117 76.096 550.086 76.3217 548.045 76.5879ZM593.955 118.379C594.521 118.519 595.056 118.609 595.562 118.649C596.148 118.709 596.734 118.768 597.32 118.828C599.558 115.004 601.997 111.231 604.638 107.507C607.381 103.723 610.244 99.9693 613.229 96.2454C612.885 95.5588 612.54 94.8722 612.195 94.1856C611.85 93.499 611.465 92.8023 611.04 92.0957C607.732 96.4264 604.627 100.807 601.724 105.239C598.922 109.609 596.332 113.989 593.955 118.379ZM603.983 114.3C604.347 114.562 604.701 114.864 605.045 115.207C605.49 115.489 605.885 115.802 606.229 116.145C607.62 114 609.042 111.906 610.493 109.862C612.046 107.758 613.639 105.663 615.273 103.579C614.848 103.216 614.453 102.903 614.089 102.641C613.745 102.298 613.36 101.945 612.935 101.582C611.382 103.686 609.83 105.791 608.277 107.895C606.805 110.02 605.374 112.155 603.983 114.3Z" fill="#060000"/>
<path d="M45.6697 145.548L641.41 135.851L621.165 171.463L34.7441 185.435L45.6697 145.548Z" fill="#060000"/>
<path d="M210.231 166.298C209.161 166.307 208.275 165.908 207.573 165.101C206.871 164.294 206.515 163.293 206.505 162.098C206.489 160.082 207.148 158.093 208.484 156.128C209.827 154.156 211.444 153.163 213.334 153.147C214.584 153.137 215.6 153.609 216.381 154.564C217.17 155.518 217.57 156.659 217.581 157.987C217.598 160.019 216.809 161.908 215.214 163.656C213.626 165.403 211.966 166.284 210.231 166.298ZM208.565 161.776C208.572 162.565 208.741 163.209 209.073 163.706C209.413 164.203 209.857 164.449 210.404 164.445C211.568 164.435 212.73 163.789 213.892 162.506C215.053 161.215 215.627 159.789 215.614 158.226C215.607 157.265 215.374 156.49 214.916 155.9C214.465 155.302 213.861 155.006 213.104 155.012C211.846 155.023 210.77 155.805 209.877 157.359C208.991 158.906 208.554 160.378 208.565 161.776ZM228.281 156.552C227.875 156.555 227.431 156.825 226.951 157.36C226.479 157.895 225.759 159.092 224.789 160.952C223.513 163.447 222.685 164.868 222.305 165.215C221.933 165.561 221.622 165.736 221.372 165.738C220.45 165.745 219.985 165.304 219.978 164.413C219.975 164.038 220.033 163.507 220.152 162.818C220.563 160.455 220.757 157.965 220.736 155.348C220.733 155.051 220.855 154.722 221.102 154.361C221.357 153.991 221.598 153.806 221.824 153.804C222.231 153.801 222.521 153.923 222.695 154.172C222.869 154.421 222.959 154.924 222.965 155.681C222.971 156.471 222.75 158.097 222.302 160.562C222.152 161.376 222.078 161.892 222.08 162.111C222.081 162.236 222.113 162.298 222.175 162.298C222.293 162.297 222.828 161.359 223.781 159.484C224.742 157.577 225.587 156.234 226.315 155.455C227.043 154.675 227.848 154.282 228.731 154.275C229.434 154.269 230.007 154.585 230.45 155.222C230.9 155.859 231.234 157.024 231.451 158.717C231.686 160.645 231.891 161.847 232.067 162.322C232.25 162.789 232.533 163.021 232.916 163.018C233.158 163.016 233.462 162.928 233.828 162.753C233.89 162.721 233.937 162.705 233.968 162.705C234.304 162.702 234.474 162.896 234.477 163.287C234.48 163.63 234.252 163.999 233.795 164.394C233.337 164.78 232.784 164.976 232.135 164.982C231.471 164.987 230.953 164.73 230.582 164.209C230.218 163.681 229.922 162.273 229.692 159.986C229.454 157.691 228.984 156.546 228.281 156.552ZM239.715 166.056C238.644 166.065 237.758 165.666 237.056 164.859C236.354 164.052 235.998 163.051 235.989 161.856C235.972 159.841 236.632 157.851 237.967 155.887C239.31 153.915 240.927 152.921 242.818 152.905C244.068 152.895 245.083 153.367 245.865 154.322C246.654 155.276 247.054 156.417 247.065 157.746C247.081 159.777 246.292 161.666 244.697 163.414C243.11 165.161 241.449 166.042 239.715 166.056ZM238.049 161.534C238.055 162.324 238.224 162.967 238.557 163.464C238.897 163.961 239.34 164.208 239.887 164.203C241.051 164.194 242.214 163.547 243.375 162.264C244.536 160.973 245.111 159.547 245.098 157.984C245.09 157.023 244.857 156.248 244.399 155.658C243.949 155.06 243.345 154.764 242.587 154.77C241.329 154.781 240.254 155.563 239.36 157.117C238.474 158.664 238.037 160.136 238.049 161.534ZM258.629 156.045C257.903 156.067 256.366 158.232 254.018 162.54C253.225 163.992 252.763 164.785 252.632 164.919C252.5 165.045 252.255 165.16 251.896 165.265C251.545 165.369 251.253 165.422 251.018 165.424C250.495 165.429 250.225 164.411 250.208 162.372C250.199 161.224 250.428 159.144 250.895 156.132C251.088 154.912 251.183 154.04 251.179 153.516C251.174 153.001 251.403 152.741 251.864 152.737C252.731 152.73 253.169 153.352 253.18 154.602C253.185 155.187 253.049 156.337 252.774 158.05C252.454 160.006 252.292 161.195 252.288 161.617C252.769 161.144 253.471 160.111 254.395 158.517C255.706 156.335 256.671 154.952 257.291 154.369C257.919 153.777 258.569 153.479 259.241 153.474C259.749 153.469 260.154 153.806 260.456 154.483C260.767 155.16 260.963 156.78 261.047 159.342C261.068 159.982 261.13 160.458 261.234 160.77C261.339 161.082 261.414 161.237 261.461 161.237C261.828 161.234 262.615 159.977 263.821 157.467C264.466 156.142 265.095 155.133 265.706 154.44C266.325 153.748 267.014 153.398 267.772 153.392C268.405 153.387 268.868 153.711 269.163 154.365C269.457 155.011 269.672 155.974 269.807 157.254C269.935 158.55 270.125 159.736 270.376 160.812C270.635 161.888 271.093 162.576 271.752 162.875C272.199 163.082 272.424 163.327 272.426 163.608C272.428 163.881 272.243 164.164 271.871 164.456C271.498 164.748 271.155 164.896 270.843 164.898C270.218 164.903 269.656 164.525 269.158 163.764C268.659 163.002 268.275 161.349 268.004 158.804C267.886 157.782 267.775 157.056 267.669 156.627C267.564 156.198 267.402 155.985 267.184 155.987C266.856 155.989 266.468 156.305 266.02 156.934C265.579 157.562 264.867 158.838 263.883 160.76C263.114 162.259 262.528 163.259 262.126 163.763C261.732 164.258 261.347 164.507 260.972 164.511C260.636 164.513 260.334 164.383 260.067 164.12C259.799 163.848 259.628 163.525 259.555 163.151C259.481 162.769 259.399 161.836 259.309 160.352C259.172 157.884 258.945 156.449 258.629 156.045ZM282.4 160.854C281.318 162.332 280.245 163.442 279.181 164.185C278.117 164.929 277.139 165.304 276.249 165.311C275.647 165.316 275.126 165.066 274.684 164.562C274.242 164.058 274.018 163.407 274.012 162.611C273.995 160.556 274.895 158.338 276.711 155.955C278.528 153.565 280.342 152.363 282.154 152.348C282.811 152.343 283.302 152.714 283.628 153.461C283.732 153.71 283.893 153.834 284.112 153.832C284.737 153.827 285.051 154.067 285.055 154.551C285.057 154.793 285.021 155.125 284.946 155.548C284.543 157.856 284.346 159.483 284.354 160.428C284.369 162.319 284.738 163.448 285.46 163.817C285.805 164.002 285.979 164.231 285.981 164.505C285.983 164.747 285.817 164.99 285.483 165.235C285.149 165.488 284.826 165.616 284.513 165.618C283.912 165.623 283.412 165.213 283.015 164.388C282.617 163.563 282.413 162.385 282.4 160.854ZM281.631 154.263C280.6 154.271 279.409 155.25 278.057 157.198C276.706 159.139 276.036 160.746 276.046 162.02C276.053 162.918 276.354 163.365 276.948 163.36C277.807 163.353 278.991 162.476 280.5 160.729C282.01 158.982 282.758 157.382 282.746 155.929C282.737 154.812 282.365 154.257 281.631 154.263ZM293.295 153.206C294.099 153.137 294.856 153.056 295.566 152.965C296.269 152.881 296.854 152.837 297.323 152.833C297.917 152.828 298.292 152.88 298.449 152.988C298.606 153.096 298.686 153.287 298.688 153.56C298.694 154.193 298.255 154.54 297.373 154.602C296.24 154.682 295.198 154.788 294.246 154.921C293.294 155.054 292.779 155.163 292.702 155.25C292.632 155.329 292.406 156.26 292.022 158.045C291.638 159.821 291.448 160.975 291.452 161.506C291.46 162.366 291.578 162.939 291.806 163.226C292.035 163.506 292.376 163.644 292.829 163.64C293.501 163.634 294.431 163.123 295.618 162.105C296.075 161.687 296.429 161.477 296.679 161.475C297.015 161.473 297.184 161.651 297.187 162.01C297.192 162.573 296.655 163.308 295.576 164.215C294.506 165.114 293.404 165.569 292.271 165.578C290.381 165.594 289.426 164.488 289.408 162.262C289.401 161.457 289.586 160.209 289.963 158.519C290.332 156.836 290.515 155.826 290.512 155.491C290.512 155.373 290.417 155.316 290.23 155.317L289.012 155.433C288.012 155.441 287.509 155.046 287.502 154.25C287.498 153.796 287.727 153.568 288.188 153.564L290.602 153.544C290.766 153.543 290.91 153.468 291.034 153.318C291.158 153.169 291.337 152.671 291.572 151.825C291.807 150.972 292.015 150.13 292.196 149.301C292.377 148.479 292.741 148.066 293.288 148.061C293.623 148.059 293.886 148.174 294.076 148.406C294.265 148.639 294.361 148.857 294.362 149.06C294.363 149.17 294.227 149.729 293.954 150.74L293.295 153.206ZM303.298 165.534C302.228 165.543 301.342 165.144 300.64 164.337C299.938 163.531 299.582 162.53 299.572 161.334C299.556 159.319 300.215 157.329 301.551 155.365C302.894 153.393 304.511 152.399 306.402 152.384C307.652 152.373 308.667 152.845 309.448 153.8C310.238 154.754 310.638 155.896 310.648 157.224C310.665 159.255 309.876 161.144 308.281 162.892C306.694 164.639 305.033 165.52 303.298 165.534ZM301.632 161.013C301.639 161.802 301.808 162.445 302.14 162.942C302.48 163.44 302.924 163.686 303.471 163.681C304.635 163.672 305.797 163.026 306.959 161.743C308.12 160.452 308.694 159.025 308.682 157.463C308.674 156.502 308.441 155.726 307.983 155.136C307.533 154.538 306.929 154.243 306.171 154.249C304.913 154.259 303.837 155.041 302.944 156.596C302.058 158.142 301.621 159.614 301.632 161.013ZM315.692 163.487C315.321 164.897 314.978 166.872 314.663 169.414L314.353 171.631C314.301 171.944 314.159 172.254 313.927 172.561C313.695 172.875 313.481 173.033 313.286 173.035C313.044 173.037 312.766 172.914 312.451 172.667C312.144 172.427 311.99 172.233 311.989 172.084C311.986 171.655 312.078 171.06 312.268 170.301C313.65 164.516 314.323 159.44 314.287 155.073L314.267 154.089C314.245 153.245 314.388 152.631 314.698 152.245C315.007 151.86 315.365 151.665 315.771 151.662C315.958 151.661 316.139 151.808 316.314 152.103C316.488 152.391 316.577 152.804 316.582 153.343C316.588 154.101 316.517 155.019 316.37 156.099C316.178 157.46 316.079 158.242 316.073 158.445C317.22 156.404 318.441 154.808 319.737 153.657C321.032 152.506 322.238 151.925 323.355 151.916C324.144 151.91 324.811 152.201 325.355 152.791C325.906 153.372 326.186 154.1 326.193 154.975C326.214 157.522 325.256 159.842 323.32 161.936C321.384 164.031 319.491 165.085 317.639 165.1C317.178 165.104 316.81 164.99 316.535 164.758C316.267 164.526 315.986 164.102 315.692 163.487ZM322.892 153.994C321.79 154.003 320.436 155.046 318.828 157.122C317.22 159.197 316.42 160.809 316.43 161.958C316.432 162.239 316.594 162.511 316.917 162.774C317.239 163.037 317.647 163.167 318.139 163.163C319.256 163.153 320.534 162.319 321.974 160.658C323.413 158.99 324.127 157.359 324.114 155.766C324.109 155.195 323.988 154.759 323.751 154.456C323.522 154.145 323.236 153.992 322.892 153.994ZM338.955 160.683C338.962 161.48 338.263 162.447 336.858 163.583C335.461 164.72 334.012 165.294 332.512 165.306C331.255 165.317 330.279 164.954 329.585 164.217C328.9 163.481 328.551 162.448 328.54 161.12C328.522 158.886 329.259 156.755 330.75 154.727C332.241 152.699 333.881 151.678 335.67 151.663C336.256 151.658 336.734 151.846 337.104 152.225C337.483 152.605 337.674 153.064 337.678 153.604C337.688 154.807 337.108 155.964 335.937 157.075C334.767 158.186 333.197 159.281 331.23 160.36C330.825 160.574 330.624 160.849 330.627 161.185C330.632 161.833 330.824 162.351 331.202 162.739C331.58 163.127 332.137 163.317 332.871 163.311C334.551 163.297 336.258 162.354 337.993 160.48C338.248 160.22 338.442 160.09 338.575 160.089C338.825 160.087 338.952 160.285 338.955 160.683ZM330.796 158.922C334.092 156.926 335.735 155.33 335.726 154.135C335.722 153.666 335.509 153.434 335.087 153.437C334.368 153.443 333.56 153.977 332.663 155.039C331.773 156.101 331.151 157.395 330.796 158.922ZM358.921 160.226C357.839 161.704 356.766 162.814 355.702 163.558C354.638 164.301 353.66 164.676 352.77 164.683C352.168 164.688 351.647 164.439 351.205 163.934C350.763 163.43 350.539 162.78 350.533 161.983C350.516 159.928 351.416 157.71 353.232 155.328C355.048 152.938 356.863 151.735 358.675 151.72C359.331 151.715 359.823 152.086 360.149 152.833C360.253 153.082 360.414 153.206 360.633 153.204C361.258 153.199 361.572 153.439 361.576 153.923C361.578 154.165 361.542 154.498 361.467 154.92C361.064 157.228 360.867 158.855 360.874 159.8C360.89 161.691 361.259 162.821 361.98 163.19C362.326 163.374 362.499 163.603 362.502 163.877C362.504 164.119 362.338 164.363 362.004 164.607C361.67 164.86 361.347 164.988 361.034 164.99C360.433 164.995 359.933 164.585 359.536 163.76C359.138 162.936 358.933 161.758 358.921 160.226ZM358.152 153.635C357.121 153.643 355.929 154.622 354.578 156.57C353.227 158.511 352.556 160.118 352.567 161.392C352.574 162.29 352.875 162.737 353.469 162.732C354.328 162.725 355.512 161.848 357.021 160.101C358.53 158.354 359.279 156.755 359.267 155.301C359.258 154.184 358.886 153.629 358.152 153.635ZM373.049 155.364C372.643 155.367 372.2 155.637 371.72 156.172C371.248 156.707 370.527 157.904 369.558 159.764C368.282 162.259 367.453 163.68 367.073 164.027C366.701 164.374 366.39 164.548 366.14 164.55C365.218 164.558 364.754 164.116 364.746 163.226C364.743 162.851 364.801 162.319 364.921 161.63C365.331 159.267 365.526 156.778 365.504 154.16C365.502 153.864 365.624 153.534 365.871 153.173C366.126 152.804 366.366 152.618 366.593 152.616C366.999 152.613 367.289 152.736 367.463 152.984C367.637 153.233 367.727 153.736 367.733 154.494C367.74 155.283 367.519 156.91 367.07 159.374C366.921 160.188 366.847 160.704 366.849 160.923C366.85 161.048 366.881 161.11 366.944 161.11C367.061 161.109 367.596 160.171 368.55 158.296C369.511 156.389 370.355 155.046 371.083 154.267C371.811 153.488 372.617 153.094 373.499 153.087C374.203 153.081 374.775 153.397 375.218 154.034C375.669 154.671 376.003 155.836 376.22 157.53C376.454 159.457 376.659 160.659 376.835 161.134C377.019 161.601 377.302 161.833 377.685 161.83C377.927 161.828 378.231 161.74 378.597 161.565C378.659 161.533 378.706 161.517 378.737 161.517C379.073 161.514 379.242 161.708 379.245 162.099C379.248 162.442 379.021 162.812 378.563 163.206C378.105 163.592 377.552 163.788 376.904 163.794C376.24 163.799 375.722 163.542 375.351 163.021C374.987 162.493 374.69 161.085 374.46 158.798C374.223 156.503 373.752 155.358 373.049 155.364ZM384.701 148.589C384.537 148.59 384.411 148.415 384.322 148.064C384.29 147.955 384.246 147.835 384.19 147.702C383.975 147.196 383.866 146.756 383.863 146.381C383.86 146.068 384.041 145.75 384.406 145.427C384.778 145.096 385.191 144.928 385.644 144.925C385.87 144.923 386.125 145.01 386.408 145.188C386.69 145.357 386.832 145.524 386.834 145.688C386.836 145.946 386.742 146.384 386.552 147.003C386.369 147.622 386.068 148.042 385.648 148.264C385.235 148.479 384.92 148.587 384.701 148.589ZM383.273 161.691C383.278 162.284 383.366 162.952 383.536 163.692C383.568 163.833 383.585 163.95 383.586 164.044C383.587 164.184 383.46 164.365 383.203 164.586C382.948 164.815 382.675 164.93 382.386 164.932C381.628 164.939 381.244 164.246 381.232 162.856C381.22 161.418 381.499 159.143 382.067 156.028C382.261 154.941 382.357 154.272 382.355 154.022C382.351 153.53 382.437 153.111 382.614 152.766C382.791 152.413 383.044 152.235 383.372 152.232C383.77 152.229 384.083 152.324 384.312 152.518C384.547 152.703 384.666 152.913 384.668 153.148C384.67 153.382 384.618 153.691 384.512 154.075C383.943 156.142 383.592 157.621 383.458 158.513C383.325 159.405 383.263 160.464 383.273 161.691ZM396.765 154.912C396.039 154.933 394.502 157.098 392.154 161.407C391.361 162.859 390.899 163.652 390.767 163.785C390.636 163.912 390.391 164.027 390.032 164.131C389.681 164.236 389.389 164.289 389.154 164.291C388.631 164.295 388.361 163.278 388.344 161.239C388.335 160.09 388.564 158.01 389.031 154.999C389.224 153.778 389.319 152.906 389.315 152.383C389.31 151.867 389.539 151.608 390 151.604C390.867 151.597 391.305 152.218 391.316 153.468C391.32 154.054 391.185 155.204 390.91 156.917C390.59 158.873 390.428 160.062 390.424 160.484C390.904 160.011 391.607 158.978 392.531 157.384C393.842 155.201 394.807 153.818 395.427 153.235C396.055 152.644 396.705 152.346 397.377 152.34C397.885 152.336 398.29 152.673 398.592 153.35C398.903 154.027 399.099 155.647 399.183 158.208C399.204 158.849 399.266 159.325 399.37 159.637C399.475 159.948 399.55 160.104 399.597 160.104C399.964 160.101 400.751 158.844 401.957 156.334C402.602 155.008 403.231 153.999 403.842 153.307C404.461 152.614 405.15 152.265 405.908 152.259C406.541 152.253 407.004 152.578 407.299 153.232C407.593 153.878 407.808 154.841 407.943 156.121C408.071 157.417 408.261 158.603 408.512 159.679C408.771 160.755 409.229 161.443 409.888 161.742C410.335 161.949 410.56 162.193 410.562 162.475C410.564 162.748 410.379 163.031 410.007 163.323C409.634 163.615 409.291 163.762 408.979 163.765C408.354 163.77 407.792 163.392 407.294 162.63C406.795 161.869 406.411 160.216 406.14 157.671C406.022 156.648 405.911 155.923 405.805 155.494C405.7 155.065 405.538 154.851 405.32 154.853C404.992 154.856 404.604 155.172 404.156 155.8C403.715 156.429 403.003 157.704 402.019 159.627C401.25 161.125 400.664 162.126 400.262 162.629C399.868 163.125 399.483 163.374 399.108 163.377C398.772 163.38 398.47 163.25 398.203 162.986C397.935 162.715 397.764 162.392 397.691 162.018C397.617 161.635 397.535 160.703 397.445 159.219C397.308 156.751 397.081 155.315 396.765 154.912ZM420.536 159.721C419.454 161.198 418.381 162.309 417.317 163.052C416.253 163.795 415.275 164.17 414.385 164.178C413.783 164.183 413.262 163.933 412.82 163.429C412.378 162.925 412.154 162.274 412.148 161.477C412.131 159.423 413.031 157.204 414.847 154.822C416.663 152.432 418.478 151.23 420.29 151.215C420.947 151.209 421.438 151.58 421.764 152.328C421.868 152.577 422.029 152.701 422.248 152.699C422.873 152.694 423.187 152.933 423.191 153.418C423.193 153.66 423.157 153.992 423.082 154.415C422.679 156.723 422.482 158.349 422.49 159.295C422.505 161.185 422.874 162.315 423.596 162.684C423.941 162.869 424.115 163.098 424.117 163.371C424.119 163.613 423.953 163.857 423.619 164.102C423.285 164.355 422.962 164.482 422.649 164.485C422.048 164.49 421.548 164.08 421.151 163.255C420.753 162.43 420.548 161.252 420.536 159.721ZM419.767 153.129C418.736 153.138 417.545 154.116 416.193 156.065C414.842 158.006 414.172 159.613 414.182 160.886C414.189 161.785 414.49 162.231 415.084 162.227C415.943 162.22 417.127 161.343 418.636 159.596C420.146 157.849 420.894 156.249 420.882 154.796C420.873 153.679 420.501 153.123 419.767 153.129ZM431.431 152.073C432.235 152.003 432.992 151.923 433.702 151.831C434.405 151.747 434.99 151.704 435.459 151.7C436.053 151.695 436.428 151.746 436.585 151.854C436.742 151.963 436.822 152.153 436.824 152.427C436.829 153.06 436.391 153.407 435.509 153.469C434.376 153.548 433.334 153.655 432.382 153.787C431.43 153.92 430.915 154.03 430.838 154.117C430.768 154.195 430.542 155.127 430.158 156.911C429.774 158.688 429.584 159.842 429.588 160.373C429.596 161.232 429.714 161.806 429.942 162.093C430.171 162.372 430.512 162.51 430.965 162.506C431.637 162.501 432.567 161.989 433.754 160.972C434.211 160.554 434.565 160.344 434.815 160.342C435.151 160.339 435.32 160.517 435.323 160.877C435.328 161.439 434.791 162.174 433.712 163.082C432.642 163.981 431.54 164.435 430.407 164.445C428.516 164.46 427.562 163.355 427.544 161.128C427.537 160.324 427.722 159.076 428.099 157.385C428.468 155.702 428.651 154.693 428.648 154.357C428.647 154.24 428.553 154.182 428.366 154.184L427.148 154.299C426.148 154.307 425.645 153.913 425.638 153.116C425.634 152.663 425.863 152.435 426.324 152.431L428.738 152.411C428.902 152.41 429.046 152.334 429.17 152.185C429.293 152.035 429.473 151.538 429.708 150.692C429.943 149.839 430.151 148.997 430.332 148.167C430.513 147.346 430.877 146.932 431.424 146.928C431.759 146.925 432.022 147.04 432.212 147.273C432.401 147.506 432.496 147.724 432.498 147.927C432.499 148.036 432.363 148.596 432.09 149.606L431.431 152.073ZM441.652 148.121C441.488 148.123 441.362 147.948 441.273 147.597C441.241 147.488 441.197 147.367 441.141 147.235C440.926 146.729 440.817 146.288 440.814 145.913C440.811 145.601 440.992 145.283 441.357 144.96C441.729 144.628 442.142 144.461 442.595 144.457C442.822 144.455 443.076 144.543 443.359 144.721C443.642 144.89 443.784 145.057 443.785 145.221C443.787 145.479 443.693 145.917 443.503 146.536C443.32 147.155 443.019 147.575 442.599 147.797C442.187 148.012 441.871 148.12 441.652 148.121ZM440.225 161.223C440.23 161.817 440.317 162.484 440.487 163.225C440.52 163.366 440.536 163.483 440.537 163.576C440.538 163.717 440.411 163.898 440.155 164.119C439.899 164.347 439.626 164.463 439.337 164.465C438.579 164.471 438.195 163.779 438.183 162.389C438.172 160.951 438.45 158.675 439.018 155.561C439.212 154.474 439.308 153.805 439.306 153.555C439.302 153.063 439.389 152.644 439.566 152.299C439.742 151.946 439.995 151.768 440.323 151.765C440.721 151.762 441.035 151.857 441.263 152.05C441.499 152.236 441.618 152.446 441.62 152.68C441.621 152.915 441.569 153.224 441.463 153.607C440.894 155.675 440.543 157.154 440.41 158.046C440.276 158.938 440.215 159.997 440.225 161.223ZM448.372 164.344C447.301 164.353 446.415 163.954 445.713 163.147C445.011 162.34 444.655 161.339 444.646 160.144C444.629 158.129 445.289 156.139 446.624 154.175C447.967 152.203 449.584 151.209 451.475 151.193C452.725 151.183 453.74 151.655 454.522 152.61C455.311 153.564 455.711 154.705 455.722 156.034C455.738 158.065 454.949 159.954 453.354 161.702C451.767 163.449 450.106 164.33 448.372 164.344ZM446.706 159.823C446.712 160.612 446.881 161.255 447.214 161.752C447.554 162.249 447.997 162.496 448.544 162.491C449.708 162.482 450.871 161.835 452.032 160.552C453.193 159.261 453.768 157.835 453.755 156.272C453.747 155.311 453.514 154.536 453.056 153.946C452.606 153.348 452.002 153.052 451.244 153.058C449.986 153.069 448.911 153.851 448.017 155.405C447.131 156.952 446.694 158.424 446.706 159.823ZM466.421 154.598C466.015 154.601 465.572 154.871 465.092 155.406C464.62 155.941 463.899 157.138 462.93 158.998C461.653 161.493 460.825 162.914 460.445 163.261C460.073 163.607 459.762 163.782 459.512 163.784C458.59 163.792 458.126 163.35 458.118 162.459C458.115 162.084 458.173 161.553 458.293 160.864C458.703 158.501 458.897 156.011 458.876 153.394C458.874 153.097 458.996 152.768 459.243 152.407C459.498 152.038 459.738 151.852 459.965 151.85C460.371 151.847 460.661 151.969 460.835 152.218C461.009 152.467 461.099 152.97 461.105 153.728C461.112 154.517 460.891 156.143 460.442 158.608C460.293 159.422 460.219 159.938 460.221 160.157C460.222 160.282 460.253 160.344 460.316 160.344C460.433 160.343 460.968 159.405 461.922 157.53C462.883 155.623 463.727 154.28 464.455 153.501C465.183 152.721 465.989 152.328 466.871 152.321C467.574 152.315 468.147 152.631 468.59 153.268C469.041 153.905 469.374 155.07 469.591 156.764C469.826 158.691 470.031 159.893 470.207 160.368C470.391 160.835 470.674 161.067 471.056 161.064C471.299 161.062 471.603 160.974 471.968 160.799C472.031 160.767 472.077 160.751 472.109 160.751C472.445 160.748 472.614 160.942 472.617 161.333C472.62 161.676 472.393 162.045 471.935 162.44C471.477 162.826 470.924 163.022 470.276 163.028C469.612 163.033 469.094 162.776 468.722 162.255C468.359 161.727 468.062 160.319 467.832 158.032C467.595 155.737 467.124 154.592 466.421 154.598Z" fill="#E1E1D1"/>
<path d="M278 85.125C285.667 83.7917 293.375 82.4583 301.125 81.125C308.875 79.7917 316.667 78.4583 324.5 77.125C332.417 75.7917 340.333 74.4583 348.25 73.125C356.167 71.7917 364.167 70.4583 372.25 69.125C371.667 71.2083 371.208 73.3333 370.875 75.5C370.625 77.6667 370.458 79.8333 370.375 82C362.625 83.6667 354.917 85.3333 347.25 87C339.583 88.6667 331.958 90.3333 324.375 92C316.875 93.6667 309.417 95.3333 302 97C294.667 98.5833 287.333 100.208 280 101.875C279.333 99.125 278.833 96.375 278.5 93.625C278.167 90.7917 278 87.9583 278 85.125ZM319.125 74C319.042 73.5 318.958 73.0417 318.875 72.625C318.875 72.125 318.833 71.625 318.75 71.125C312.5 72.2917 306.25 73.5 300 74.75C293.833 75.9167 287.708 77.125 281.625 78.375C281.458 78.875 281.333 79.4167 281.25 80C281.167 80.5 281.083 81 281 81.5C287.333 80.25 293.667 79 300 77.75C306.333 76.5 312.708 75.25 319.125 74ZM312 67.25C312.167 67.5833 312.333 67.9167 312.5 68.25C312.75 68.5 313 68.7917 313.25 69.125C309.417 69.875 305.583 70.5833 301.75 71.25C298 71.9167 294.208 72.5833 290.375 73.25C290.458 72.8333 290.542 72.375 290.625 71.875C290.708 71.375 290.792 70.9167 290.875 70.5C294.375 69.9167 297.875 69.375 301.375 68.875C304.875 68.2917 308.417 67.75 312 67.25ZM331.5 95.625C331.75 96.0417 332 96.5 332.25 97C332.5 97.5 332.75 97.9583 333 98.375C338.917 96.7917 344.875 95.2083 350.875 93.625C356.875 92.0417 362.917 90.4167 369 88.75C369 88.25 369 87.75 369 87.25C369 86.6667 369.042 86.125 369.125 85.625C362.708 87.2917 356.333 88.9583 350 90.625C343.75 92.2917 337.583 93.9583 331.5 95.625ZM346 100.25C345.667 99.9167 345.292 99.625 344.875 99.375C344.458 99.0417 344.083 98.7083 343.75 98.375C347.333 97.4583 350.917 96.5417 354.5 95.625C358.167 94.7083 361.833 93.7917 365.5 92.875C365.583 93.2917 365.667 93.75 365.75 94.25C365.917 94.6667 366.042 95.125 366.125 95.625C362.792 96.375 359.417 97.1667 356 98C352.667 98.75 349.333 99.5 346 100.25Z" fill="#060000"/>
</svg>
